<?xml version="1.0" encoding="UTF-8"?>
<svg width="48px" height="48px" viewBox="0 0 48 48" version="1.1" xmlns="http://www.w3.org/2000/svg" xmlns:xlink="http://www.w3.org/1999/xlink">
    <!-- Generator: Sketch 53.2 (72643) - https://sketchapp.com -->
    <title>download_offline</title>
    <desc>Created with Sketch.</desc>
    <defs>
        <path d="M35.9204523,14.1128 C36.1970795,13.38893 36.3490909,12.60242 36.3490909,11.78 C36.3490909,8.2012175 33.4771786,5.3 29.9345455,5.3 C28.6162895,5.3 27.3911114,5.701895 26.3720673,6.3907325 C24.5250791,3.15674 21.0669709,0.98 17.1054545,0.98 C11.2009991,0.98 6.41454545,5.815295 6.41454545,11.78 C6.41454545,11.96414 6.41922273,12.1471325 6.42817636,12.3289775 C2.68415318,13.6595375 0,17.2628225 0,21.5 C0,26.8682075 4.307835,31.22 9.62181818,31.22 L34.2109091,31.22 C38.93442,31.22 42.7636364,27.35171 42.7636364,22.58 C42.7636364,18.399725 39.8247723,14.912945 35.9204523,14.1128 Z" id="path-1"></path>
        <path d="M11.1962446,5.10210914 L11.8062743,5.69668564 C12.0645752,5.94844325 12.0645752,6.35554068 11.8062743,6.60462002 L6.46713991,11.8111818 C6.20883902,12.0629394 5.79116098,12.0629394 5.53560797,11.8111818 L0.19372567,6.60462002 C-0.0645752233,6.3528624 -0.0645752233,5.94576498 0.19372567,5.69668564 L0.803755439,5.10210914 C1.06480421,4.84767325 1.4907259,4.8530298 1.74627891,5.11282223 L4.90084726,8.34014061 L4.90084726,0.642785403 C4.90084726,0.286575159 5.19487062,0 5.56033891,0 L6.43966109,0 C6.80512938,0 7.09915274,0.286575159 7.09915274,0.642785403 L7.09915274,8.34014061 L10.2537211,5.11282223 C10.5092741,4.85035152 10.9351958,4.84499498 11.1962446,5.10210914 Z" id="path-3"></path>
    </defs>
    <g id="download_offline" stroke="none" stroke-width="1" fill="none" fill-rule="evenodd">
        <g id="Group" transform="translate(2.000000, 8.000000)">
            <g id="Solid/cloud" transform="translate(0.126915, 0.275136)">
                <mask id="mask-2" fill="white">
                    <use xlink:href="#path-1"></use>
                </mask>
                <use id="Mask" stroke="#D7D7D7" stroke-width="2.2121022" xlink:href="#path-1"></use>
            </g>
            <g id="Solid/arrow-down" transform="translate(16.000000, 14.000000)">
                <mask id="mask-4" fill="white">
                    <use xlink:href="#path-3"></use>
                </mask>
                <use id="Mask" fill="#D7D7D7" xlink:href="#path-3"></use>
            </g>
        </g>
    </g>
</svg>