<?xml version="1.0" encoding="UTF-8"?>
<svg width="48px" height="48px" viewBox="0 0 48 48" version="1.1" xmlns="http://www.w3.org/2000/svg" xmlns:xlink="http://www.w3.org/1999/xlink">
    <!-- Generator: Sketch 53.2 (72643) - https://sketchapp.com -->
    <title>offline</title>
    <desc>Created with Sketch.</desc>
    <defs>
        <path d="M35.9204523,14.1128 C36.1970795,13.38893 36.3490909,12.60242 36.3490909,11.78 C36.3490909,8.2012175 33.4771786,5.3 29.9345455,5.3 C28.6162895,5.3 27.3911114,5.701895 26.3720673,6.3907325 C24.5250791,3.15674 21.0669709,0.98 17.1054545,0.98 C11.2009991,0.98 6.41454545,5.815295 6.41454545,11.78 C6.41454545,11.96414 6.41922273,12.1471325 6.42817636,12.3289775 C2.68415318,13.6595375 0,17.2628225 0,21.5 C0,26.8682075 4.307835,31.22 9.62181818,31.22 L34.2109091,31.22 C38.93442,31.22 42.7636364,27.35171 42.7636364,22.58 C42.7636364,18.399725 39.8247723,14.912945 35.9204523,14.1128 Z" id="path-1"></path>
    </defs>
    <g id="offline" stroke="none" stroke-width="1" fill="none" fill-rule="evenodd">
        <g id="Group" transform="translate(2.000000, 3.000000)">
            <g id="Solid/cloud" transform="translate(0.126915, 1.275136)">
                <mask id="mask-2" fill="white">
                    <use xlink:href="#path-1"></use>
                </mask>
                <use id="Mask" stroke="#D7D7D7" stroke-width="2.2121022" xlink:href="#path-1"></use>
            </g>
            <path d="M0.650618739,0.643757879 L43.2399327,40.3102627" id="Line" stroke="#D7D7D7" stroke-width="2.2121022" stroke-linecap="square" transform="translate(21.945276, 20.477010) rotate(1.000000) translate(-21.945276, -20.477010) "></path>
        </g>
    </g>
</svg>